<?xml version="1.0" standalone="no"?>
<!DOCTYPE svg PUBLIC "-//W3C//DTD SVG 1.1//EN" "http://www.w3.org/Graphics/SVG/1.1/DTD/svg11.dtd" >
<!--
2013-9-30: Created.
-->
<svg>
<metadata>
Created by iconfont
</metadata>
<defs>

<font id="iconfont" horiz-adv-x="1024" >
  <font-face
    font-family="iconfont"
    font-weight="500"
    font-stretch="normal"
    units-per-em="1024"
    ascent="896"
    descent="-128"
  />
    <missing-glyph />
    
    <glyph glyph-name="shoucang1" unicode="&#58928;" d="M544.9 777.9L644 577.1c7.9-16.1 23.3-27.2 41-29.8l221.6-32.2c29.1-4.2 40.8-40 19.7-60.6L765.9 298.2a54.615 54.615 0 0 1-15.7-48.2l37.9-220.7c5-29-25.5-51.1-51.5-37.4L538.3 96.1c-15.9 8.3-34.8 8.3-50.7 0L289.5-8.1c-26.1-13.7-56.5 8.4-51.5 37.4L275.8 250c3 17.7-2.8 35.7-15.7 48.2L99.8 454.5c-21.1 20.5-9.4 56.4 19.7 60.6l221.6 32.2c17.7 2.6 33.1 13.7 41 29.8l99.1 200.8c13 26.4 50.6 26.4 63.7 0z"  horiz-adv-x="1024" />

    
    <glyph glyph-name="shoucang2" unicode="&#59315;" d="M323.106133 17.783467a59.733333 59.733333 0 0 0-86.698666 62.976l35.874133 208.9984-151.8592 148.002133a59.733333 59.733333 0 0 0 33.109333 101.888l209.851734 30.481067 93.866666 190.1568a59.733333 59.733333 0 0 0 107.1104 0l93.866667-190.122667 209.8176-30.5152a59.733333 59.733333 0 0 0 33.109333-101.888l-151.825066-148.002133 35.84-208.9984a59.733333 59.733333 0 0 0-86.698667-62.976l-187.665067 98.645333-187.6992-98.645333z m199.611734 150.254933l199.611733-104.925867a8.533333 8.533333 0 0 1 12.356267 8.977067l-38.126934 222.276267a25.6 25.6 0 0 0 7.3728 22.664533l161.4848 157.3888a8.533333 8.533333 0 0 1-4.744533 14.574933l-223.1296 32.426667a25.6 25.6 0 0 0-19.285333 13.994667L518.4512 737.621333a8.533333 8.533333 0 0 1-15.291733 0l-99.805867-202.205866a25.6 25.6 0 0 0-19.285333-13.994667l-223.163734-32.426667a8.533333 8.533333 0 0 1-4.744533-14.574933l161.4848-157.3888a25.6 25.6 0 0 0 7.3728-22.664533l-38.126933-222.276267a8.533333 8.533333 0 0 1 12.3904-8.977067l199.611733 104.925867a25.6 25.6 0 0 0 23.825067 0z"  horiz-adv-x="1024" />

    
    <glyph glyph-name="sousuo" unicode="&#58889;" d="M756.7 712.6c-158.3 158.3-415 158.3-573.3 0s-158.3-415 0-573.3c142-142 362.9-156.2 521.2-43.5L844-43.6c26.3-26.3 69.3-26.3 95.6 0s26.3 69.3 0 95.6L800.2 191.3c112.7 158.4 98.5 379.3-43.5 521.3z m-95.5-477.8c-105.4-105.4-276.8-105.4-382.2 0S173.6 511.7 279 617s276.8 105.4 382.2 0 105.4-276.8 0-382.2z"  horiz-adv-x="1024" />

    
    <glyph glyph-name="wode5" unicode="&#58882;" d="M443.213445 880.522347c-35.599828 0-30.120334-15.66286-49.282703-18.352979-19.171579-2.694213 3.875041 7.574083-53.621276-3.199697-57.4912-10.788106-77.79756-83.52161-80.537819-110.471922-2.734119-26.930869-3.419695-102.673747-1.599337-143.097167 5.47847-24.236657-13.682875-24.236657-13.682875-24.236657-34.449697 2.169286-18.966929-103.479043-18.966929-103.479043 4.954568-26.035527-1.779429-39.003151 49.23768-59.175466 24.296005-68.109446 87.77116-104.133922 87.77116-104.133922s0.320276 6.718648 1.280083-24.391167c-5.188891 2.543795 42.102571-79.522757-116.356622-102.543794-158.470448-23.001596-188.805664-122.281229-218.680418-150.376554-29.879871-28.135232-28.715414-164.467706-28.715414-164.467706l1022.677221-0.540275c0 0-7.598641 136.873772-37.473396 165.009004-29.870661 28.095326-62.420186 127.374958-220.874262 150.376554-154.056155 21.932302-104.349827 102.843607-105.438564 107.687663 0.284463 12.262606 1.954404 15.498117 1.954404 15.498117s53.796251 41.783317 78.08714 109.912205c38.243902 23.76187 52.805746 27.071055 59.130443 54.440897 0 0 11.242428 106.738089-24.860838 106.193721 0 0-17.112803-5.409913-11.633309 18.846185 5.474378 24.250982 3.654019 99.984651 0.909667 126.924729-2.739235 26.946218 1.389571 103.953831-56.100606 114.74296-39.243615 7.184225-44.367019 0.064464-63.529388 2.749468-19.162369 2.705468-66.360715 51.5625-101.954403 51.5625L443.213445 880.522347z"  horiz-adv-x="1024" />

    
    <glyph glyph-name="xuexiaohuaxiang" unicode="&#58920;" d="M574.6 392.7v236c0 6.5-5.4 11.9-11.9 11.9h-236c-3.3 0-5.9 2.7-5.9 6v51.8c0 3.3 2.7 6 5.9 6h115c3.3 0 6 2.7 6 5.9V825c0 3.3-2.7 6-6 6H263.2c-3.3 0-5.9-2.7-5.9-6v-178.5c0-3.3-2.7-6-5.9-6H79c-6.5 0-11.9-5.4-11.9-11.9v-673.8c0-6.5 5.4-11.9 11.9-11.9h864.6c6.5 0 11.9 5.4 11.9 11.9v420c0 6.5-5.4 11.9-11.9 11.9h-363c-3.3 0-6 2.6-6 6z m6-196.3h305.5c3.3 0 6-2.7 6-6v-51.6c0-3.3-2.7-6-6-6H580.6c-3.3 0-5.9 2.7-5.9 6v51.6c-0.1 3.4 2.6 6 5.9 6zM892 317.3v-51.5c0-3.3-2.7-6-6-6H580.6c-3.3 0-5.9 2.7-5.9 6v51.5c0 3.3 2.7 5.9 5.9 5.9h305.5c3.2 0.1 5.9-2.6 5.9-5.9zM505.2 577.1c3.3 0 5.9-2.7 5.9-6v-184.4h-0.1v-0.1H136.5c-3.3 0-6 2.7-6 5.9V571.1c0 3.3 2.7 6 6 6h368.7zM130.5 12.3V317.2c0 3.3 2.7 5.9 6 5.9h368.6c3.3 0 5.9-2.7 5.9-5.9v-304.8c0-3.3-2.7-6-5.9-6H136.5c-3.3 0-6 2.6-6 5.9z m444.1 0v51.2c0 3.3 2.7 6 5.9 6H886c3.3 0 6-2.7 6-6v-51.2c0-3.3-2.7-5.9-6-5.9H580.6c-3.3 0-6 2.6-6 5.9z m0 0M441.8 513.8h-242c-3.3 0-6-2.7-6-5.9v-52c0-3.3 2.7-5.9 6-5.9h241.9c3.3 0 6 2.7 6 5.9v52c0 3.2-2.7 5.9-5.9 5.9z m-0.4-254.2h-242c-3.3 0-6-2.7-6-6v-52c0-3.3 2.7-5.9 6-5.9h241.9c3.3 0 6 2.7 6 5.9v52c0 3.3-2.7 6-5.9 6zM193.8 127.1v-52c0-3.3 2.7-6 6-6h241.9c3.3 0 6 2.7 6 6v52c0 3.3-2.7 6-6 6h-242c-3.2 0-5.9-2.7-5.9-6z m0 0"  horiz-adv-x="1024" />

    
    <glyph glyph-name="bianji1" unicode="&#58881;" d="M961.88375 754.608742c-15.998054 15.997338-41.934848 15.997338-57.930752 0L498.44265 349.115494c-15.998054-15.99529-15.998054-41.930957 0-57.928294 15.996006-15.99529 41.9328-15.99529 57.928704 0l405.512294 405.493248C977.879654 712.677786 977.879654 738.613453 961.88375 754.608742zM811.660186 319.64119c-22.415462 0-40.589107-18.17088-40.589107-40.587366l0-202.937992c0-22.416589-18.171597-40.587366-40.589107-40.587366L202.819615 35.528466c-22.41751 0-40.589107 18.17088-40.589107 40.587366L162.230508 725.517187c0 22.414541 18.171597 40.587366 40.589107 40.587366l405.89302 0c22.41751 0 40.589107 18.17088 40.589107 40.587366 0 22.414541-18.171597 40.587366-40.589107 40.587366L162.230517 847.279287c-44.832973 0-81.178214-36.343706-81.178214-81.174835l0-730.577181c0-44.831027 36.345242-81.176883 81.178214-81.176883l608.840553 0c44.835021 0 81.178214 36.345754 81.178214 81.176883L852.249285 279.05381C852.249293 301.47031 834.077696 319.64119 811.660186 319.64119z"  horiz-adv-x="1024" />

    
    <glyph glyph-name="jia" unicode="&#58931;" d="M791.457164 413.990578 542.361553 413.990578 542.361553 663.086189c0 17.190122-13.94987 31.139992-31.139992 31.139992-17.190122 0-31.139992-13.94987-31.139992-31.139992l0-249.095611L230.985958 413.990578C213.795836 413.990578 199.845966 400.040708 199.845966 382.850586c0-17.190122 13.94987-31.139992 31.139992-31.139992l249.095611 0 0-249.095611c0-17.224179 13.94987-31.139992 31.139992-31.139992 17.190122 0 31.139992 13.915813 31.139992 31.139992L542.361553 351.710594l249.095611 0c17.224179 0 31.139992 13.94987 31.139992 31.139992C822.597156 400.040708 808.681343 413.990578 791.457164 413.990578L791.457164 413.990578zM791.457164 413.990578"  horiz-adv-x="1024" />

    
    <glyph glyph-name="shoucang" unicode="&#58927;" d="M942.888817 491.463084c-9.590498 27.201757-33.74692 46.780283-63.048453 51.093359l-206.68087 30.285267-89.758344 183.564943c-12.976602 26.57758-41.010795 43.753735-71.428571 43.753735-30.341828 0-58.338247-17.176155-71.352823-43.753735l-89.796318-183.58393-206.661883-30.323041c-29.320521-4.21834-53.49573-23.777879-63.086228-51.131133-9.57171-27.618075-2.440146-57.619534 18.594793-78.295116l151.690754-149.250608-35.184545-206.813381c-4.937253-28.828654 7.888052-58.395008 32.763187-75.362904 24.326507-16.362706 56.938396-18.159688 83.137633-4.388625l179.933005 95.509045 180.046528-95.527832c11.6525-6.147832 24.723837-9.401626 37.832749-9.401626 16.154647 0 31.798641 4.766968 45.323671 13.865599 24.761612 16.892547 37.567929 46.439914 32.630876 75.268568l-35.165758 206.832168 151.709741 149.250608C945.385924 433.768001 952.517489 463.76946 942.888817 491.463084zM897.81118 440.048343l-165.783599-163.116407 38.475913-226.316158c2.496907-14.52775-3.896758-28.942177-16.551978-37.586916-12.957815-8.7017-30.436564-9.628472-44.226614-2.364597l-197.733337 104.929458-197.601027-104.891484c-13.941348-7.339624-31.439084-6.355891-44.226614 2.269861-12.78753 8.720488-19.181195 23.153702-16.684288 37.681452l38.4949 226.278183-165.764612 163.116407c-10.517469 10.328397-14.111632 25.253478-9.401426 38.854257 4.899278 13.922561 17.440975 23.948163 32.819948 26.161463l226.448468 33.236066 98.55458 201.497785c6.69646 13.695514 21.375507 22.548312 37.378857 22.548312 16.060111 0 30.739159-8.834011 37.435619-22.529525l98.535593-201.497785 226.391906-33.160517c15.360186-2.270061 27.958444-12.333438 32.838935-26.18025C911.922812 465.301821 908.328649 450.395528 897.81118 440.048343zM509.475871 536.654444c-38.740734 0-69.952972-11.822784-92.72833-35.108796-38.022021-38.873244-37.208573-95.33876-37.151811-97.741132 0.227046-10.290623 8.644739-18.462482 18.897587-18.462482 0.113523 0 0.245833 0 0.359356 0 10.422933 0.189072 18.708316 8.815023 18.557018 19.237957 0 0.435105-0.340569 43.394179 26.558593 70.690672 15.378973 15.625006 37.435619 23.532045 65.488599 23.532045 10.44192 0 18.916375 8.474454 18.916375 18.916375C528.373459 528.161003 519.917792 536.654444 509.475871 536.654444z"  horiz-adv-x="1024" />

    
    <glyph glyph-name="wenjian" unicode="&#58960;" d="M752 816H272c-70.4 0-128-57.6-128-128v-608c0-70.4 57.6-128 128-128h353.6c33.6 0 65.6 12.8 91.2 36.8l126.4 126.4c24 24 36.8 56 36.8 91.2V688c0 70.4-57.6 128-128 128zM208 80V688c0 35.2 28.8 64 64 64h480c35.2 0 64-28.8 64-64v-464h-96c-70.4 0-128-57.6-128-128v-80H272c-35.2 0-64 28.8-64 64z m462.4-44.8c-4.8-4.8-9.6-8-14.4-11.2V96c0 35.2 28.8 64 64 64h75.2l-124.8-124.8zM368 544h288c17.6 0 32 14.4 32 32s-14.4 32-32 32H368c-17.6 0-32-14.4-32-32s14.4-32 32-32zM496 288h-128c-17.6 0-32-14.4-32-32s14.4-32 32-32h128c17.6 0 32 14.4 32 32s-14.4 32-32 32zM368 384h288c17.6 0 32 14.4 32 32s-14.4 32-32 32H368c-17.6 0-32-14.4-32-32s14.4-32 32-32z"  horiz-adv-x="1024" />

    
    <glyph glyph-name="goutongjiaoliu" unicode="&#58902;" d="M280 562.9c-30.4 0-59.8 9-85 26-11.4 7.7-14.5 23.3-6.7 34.7 7.7 11.4 23.3 14.5 34.7 6.7 16.9-11.4 36.6-17.4 57-17.4 33.5 0 64.9 16.5 84 44.2 4.2 6.1 11 10.1 18.4 10.7 7.4 0.7 14.7-2 20-7.3 16.1-16.2 37.5-25.2 60.2-25.2 20.5 0 40.2 7.4 55.5 20.8 10.4 9.1 26.2 8 35.3-2.4 9.1-10.4 8-26.2-2.4-35.3-24.5-21.4-55.9-33.2-88.5-33.2-27 0-52.7 7.9-74.7 22.6-28.2-28.4-66.9-44.9-107.8-44.9zM338.4-39.8c-0.7 0-1.4 0-2.2 0.1-11 1.2-18.9 11-17.8 22L347 249.1c1.2 11 11 18.9 22 17.8 11-1.2 18.9-11 17.8-22l-28.6-266.8c-1-10.3-9.7-17.9-19.8-17.9zM434.7-40.7c-10.1 0-18.8 7.6-19.9 17.9L386.3 244c-1.2 11 6.8 20.8 17.8 22 11 1.2 20.8-6.8 22-17.8l28.5-266.8c1.2-11-6.8-20.8-17.8-22-0.7-0.1-1.4-0.1-2.1-0.1zM384.6 222.1c-28.7 0-52.1 23.4-52.1 52.1 0 28.7 23.4 52.1 52.1 52.1s52.1-23.4 52.1-52.1c0-28.7-23.4-52.1-52.1-52.1z m0 64.2c-6.7 0-12.1-5.4-12.1-12.1s5.4-12.1 12.1-12.1 12.1 5.4 12.1 12.1-5.4 12.1-12.1 12.1zM574.3-45.6H193.1c-55.6 0-100.9 45.3-100.9 100.9V181.6c0 67.6 36.6 130.1 95.5 163.2l74.4 41.9c-19.9 14.1-37.3 31.6-51.3 52-23.8 34.6-36.4 75.2-36.4 117.3 0 63.2 28.3 122.2 77.7 161.7 49.4 39.6 113.8 54.2 176.9 40.2 37.6-8.4 72-27.2 99.4-54.5 27.4-27.3 46.4-61.6 55-99.1 11.6-51.2 4.9-101.9-19.4-146.8-15.1-27.9-36.4-51.9-61.9-70.1l73.6-38.9c61.5-32.5 99.7-96 99.7-165.5v-127.6c-0.2-55.7-45.5-101-101.1-101zM381.8 713.1c-35.9 0-70.5-11.9-98.6-34.4-37.5-30-58.9-74.8-58.9-122.7 0-64.5 38.7-121.8 98.6-145.9 8.9-3.6 15-12 15.6-21.6s-4.3-18.7-12.7-23.4l-113.6-63.9c-43.2-24.2-70-70.1-70-119.6v-126.3c0-28.1 22.8-50.9 50.9-50.9h381.2c28.1 0 50.9 22.8 50.9 50.9V182.9c0 51-28 97.4-73.1 121.3l-114.4 60.5c-8.6 4.6-13.8 13.7-13.3 23.4s6.6 18.3 15.7 21.9c72.2 29 111.8 106 94.3 183.2-13.1 57.6-58.8 103.1-116.5 115.9-12 2.7-24.1 4-36.1 4zM539.5 208.9h-51c-11 0-20 9-20 20s9 20 20 20h51c11 0 20-9 20-20s-9-20-20-20zM583.3 369c-5.8 0-11.5 2-16.2 5.9a25.25 25.25 0 0 0-7.9 26.1l12.2 42h-9.7c-13.8 0-25 11.2-25 25s11.2 25 25 25h43c7.9 0 15.3-3.7 20-10s6.2-14.4 4-22l-5.9-20.2 103 49.7c3.4 1.6 7.1 2.5 10.9 2.5h125c12.1 0 22 9.9 22 22V725.8c0 12.1-9.9 22-22 22h-294c-12.1 0-22-9.9-22-22V690c0-13.8-11.2-25-25-25s-25 11.2-25 25v35.8c0 39.7 32.3 72 72 72h294c39.7 0 72-32.3 72-72V515c0-39.7-32.3-72-72-72H742.5l-148.4-71.5c-3.4-1.7-7.1-2.5-10.8-2.5zM633.7 622.6m-25 0a25 25 0 1 1 50 0 25 25 0 1 1-50 0ZM720.7 622.6m-25 0a25 25 0 1 1 50 0 25 25 0 1 1-50 0ZM807.8 622.6m-25 0a25 25 0 1 1 50 0 25 25 0 1 1-50 0Z"  horiz-adv-x="1024" />

    
    <glyph glyph-name="wenjian1" unicode="&#59169;" d="M896 704H524.8l-150.4 121.6c-9.6 3.2-16 6.4-22.4 6.4H128C73.6 832 32 790.4 32 736v-704c0-54.4 41.6-96 96-96h768c54.4 0 96 41.6 96 96V608c0 54.4-41.6 96-96 96z m32-672c0-19.2-12.8-32-32-32H128c-19.2 0-32 12.8-32 32V448h832v-416z m0 480H96V736c0 19.2 12.8 32 32 32h211.2l150.4-121.6c9.6-3.2 16-6.4 22.4-6.4h384c19.2 0 32-12.8 32-32v-96z"  horiz-adv-x="1024" />

    
    <glyph glyph-name="iconfonti" unicode="&#58923;" d="M438.584533 157.867733c14.946133-15.374933 39.2-15.374933 54.1792 0l192.600533 198.250667c14.9376 15.403733 14.9376 40.3744 0 55.746133L492.763733 610.109867c-14.9792 15.403733-39.233067 15.403733-54.1792 0-14.970667-15.3792-14.970667-40.3456 0-55.7504L604.1056 383.9936l-165.521067-170.346667C423.613867 198.2432 423.613867 173.2768 438.584533 157.867733L438.584533 157.867733zM438.584533 157.867733"  horiz-adv-x="1024" />

    
    <glyph glyph-name="jinggao" unicode="&#59157;" d="M941.8 167L590.4 776.3c-14.8 43.2-61.7 66.2-104.9 51.4-24.2-8.3-43.1-27.2-51.4-51.4L82.8 167c-43.2-74.3-8.3-134.7 78.1-134.7h702.7c86.4 0 121.4 60.3 78.2 134.7zM464 603.4c25.9 26.7 68.6 27.3 95.2 1.3 0.5-0.4 0.9-0.9 1.3-1.3 12.8-13.8 19.7-32 19.1-50.8 0-17.2-26.7-145.5-34.9-238.9h-63.5c-7.6 93.4-36.2 221.7-36.2 238.9-0.5 18.8 6.3 37 19 50.8z m95.9-444.7c-26.7-25.3-68.6-25.3-95.3 0-26.3 26.3-26.3 69 0.1 95.2 26.3 26.3 69 26.3 95.2-0.1 26.3-26.2 26.3-68.8 0-95.1z"  horiz-adv-x="1034" />

    
    <glyph glyph-name="nanshi-" unicode="&#58884;" d="M579.2 249.5H445.1c-14.4 0-26.2 11.8-26.2 26.2V459.3c0 14.4 11.8 26.2 26.2 26.2h134.1c14.4 0 26.2-11.8 26.2-26.2v-183.6c0-14.4-11.8-26.2-26.2-26.2zM840.7-63.1V117c0 83.9-147.8 139.5-328.4 139.5-180.6 0-328.4-55.6-328.4-139.5v-180.1h656.8zM381.5 475.5h-53.7c-26.5 0-48.1 21.7-48.1 48.1 0 26.5 21.7 48.1 48.1 48.1h53.7c26.5 0 48.1-21.7 48.1-48.1 0-26.4-21.7-48.1-48.1-48.1zM687 480.1h-53.7c-26.5 0-48.1 21.7-48.1 48.1 0 26.5 21.7 48.1 48.1 48.1H687c26.5 0 48.1-21.7 48.1-48.1 0.1-26.4-21.6-48.1-48.1-48.1zM800.7-63.1V117c0 83.9-81.2 139.5-288.4 139.5-202.6 0-288.4-55.6-288.4-139.5v-180.1h576.8zM512.1 346.9c-95.4 0-173.5 55.2-173.5 156.2V637.3c0 101 78.1 183.7 173.5 183.7s173.5-82.7 173.5-183.8v-134.1c0-101-78.1-156.2-173.5-156.2zM409 542.7a23.8 19.2 90 1 1 38.4 0 23.8 19.2 90 1 1-38.4 0ZM576 542.7a23.8 19.2 90 1 1 38.4 0 23.8 19.2 90 1 1-38.4 0ZM339.6-63.1v112c0 7.7-6.3 14-14 14s-14-6.3-14-14V-63h28zM711.3-63.1v112c0 7.7-6.3 14-14 14s-14-6.3-14-14V-63h28zM577.8 246.5H447.3c-8.6-12.2-8.6-32.2 0-44.5l49.5-70.2c8.6-12.2 22.8-12.2 31.4 0l49.5 70.2c8.7 12.3 8.7 32.3 0.1 44.5zM700.4 813.4h-243c-28.9 0-54-19.7-65.8-48.1-37.5-3.3-63.4-40-63.4-84.2l11.4-119.4H397c2.6 0 4.8 2.2 4.8 4.9v65.1c0 3.1 2.2 5.7 4.9 5.7l212-20.8c2.7 0 4.9-2.6 4.9-5.7v-40.5c0-3.7 2.9-6.7 6.5-6.7l45.4-2h7.1c19.4 0 36.3 230.3 36.3 230.3 1.3 12.5-8.3 21.4-18.5 21.4zM712.1 833.4h-254c-29.3 0-54.7-19.3-66.6-47.2-38-3.3-68.1-39.1-68.1-82.4l14-117.3H379c2.7 0 4.8 2.2 4.8 4.8v63.8c0 3.1 2.2 5.6 5 5.6l246.8-22.3c2.7 0 5-2.5 5-5.6V593c0-3.6 2.9-6.5 6.6-6.5h46.1c12.3 0 37.6 225.9 37.6 225.9 1.1 12.3-8.5 21-18.8 21zM511.3 247.5l-36.5-79.4c-6.5-10.3-13.6-21.2-24.1-11.7l-103.4 75.7c-7.9 7.9-15.9 13.9-12.8 23.6l32.3 54.2c3.1 9.7 14 15 24.1 11.7L498.5 271c10.2-3.2 15.9-13.8 12.8-23.5zM513.2 248.1l35.9-79.6c6.4-10.4 13.4-21.3 24.1-11.9l103.9 75c7.9 7.8 16 13.8 12.9 23.5l-21 51.4c-3.1 9.7-13.9 15.1-24.1 11.9L526 271.7c-10-3.3-15.9-13.9-12.8-23.6zM549.3-63.7h-73.9c-7.7 0-14 3-14 6.7l30 206c0 3.7 6.3 6.7 14 6.7h13.9c7.7 0 14-3 14-6.7l30-206c0-3.7-6.3-6.7-14-6.7zM528.3 133.7h-33c-3 0-5.5 2.5-5.5 5.5s2.5 5.5 5.5 5.5h33c3 0 5.5-2.5 5.5-5.5s-2.5-5.5-5.5-5.5z"  horiz-adv-x="1024" />

    
    <glyph glyph-name="xiaoxi" unicode="&#58905;" d="M612.1 128.5h-15.3l-69.3-69.3c-4.8-4.8-11.3-7.5-18.1-7.5-6.8 0-13.3 2.7-18.1 7.5L414.6 136c-15.1 15.1-7.4 44.3 23.1 45.1 2.2 0.1 5.4-1.2 7-2.8l64.8-64.8h0.1l58.7 58.7c4.8 4.8 11.3 7.5 18.1 7.5h25.9M343.7 374.5c-28.9 0-50.5 32.2-30.8 62.6 1.7 2.6 4 4.9 6.6 6.6 30.4 19.7 62.6-1.9 62.6-30.8 0-21.2-17.3-38.4-38.4-38.4z m173.6 0c-28.9 0-50.5 32.1-30.8 62.6 1.7 2.6 4 4.9 6.6 6.6 30.4 19.7 62.6-1.9 62.6-30.8 0-21.2-17.3-38.4-38.4-38.4z m173.6 0c-28.9 0-50.5 32.2-30.8 62.6 1.7 2.6 4 4.9 6.6 6.6 30.4 19.7 62.6-1.9 62.6-30.8 0-21.2-17.3-38.4-38.4-38.4z m0 0M775 125.7H595c-16.6 0-30 13.4-30 30s13.4 30 30 30h180c16.5 0 30 13.5 30 30v397c0 16.5-13.5 30-30 30H251c-16.5 0-30-13.5-30-30v-397c0-16.5 13.5-30 30-30h175c16.6 0 30-13.4 30-30s-13.4-30-30-30H251c-49.6 0-90 40.4-90 90v397c0 49.6 40.4 90 90 90h524c49.6 0 90-40.4 90-90v-397c0-49.7-40.4-90-90-90z"  horiz-adv-x="1024" />

    
    <glyph glyph-name="ico_home_obligation" unicode="&#58973;" d="M532.53461333 241.27715554999997h98.31856356a14.56355555 14.56355555 0 0 1 14.53442844 14.49073778v11.79648a14.56355555 14.56355555 0 0 1-14.53442844 14.49073778H393.16138667a14.56355555 14.56355555 0 0 1-14.53442845-14.49073778v-11.79648a14.56355555 14.56355555 0 0 1 14.53442845-14.49073778h98.33312711v-81.5559111h-98.33312711a14.56355555 14.56355555 0 0 1-14.53442845-14.49073778v-11.79648a14.56355555 14.56355555 0 0 1 14.53442845-14.49073778h98.33312711v-107.71205689c0-8.06820978 6.52447289-14.62180978 14.57811911-14.62180978h11.88386133a14.53442845 14.53442845 0 0 1 14.57811911 14.62180978V118.94328888999996h98.33312712a14.56355555 14.56355555 0 0 1 14.53442844 14.49073778v11.79648a14.56355555 14.56355555 0 0 1-14.53442844 14.49073778H532.53461333v81.5559111zM373.35495111 578.43803022c-0.07281778 8.67987911-3.29136355 19.61710933-12.69942044 32.94276267-28.573696 40.48668445-120.061952 147.41230933-90.046464 176.90350933 30.015488 29.47663645 106.02268445-42.97705245 136.02360888-13.500416C436.66272711 804.27508622 441.45413689 893.72444445 476.26103467 893.72444445s69.61379555-118.94055822 94.51747555-105.44014223c24.88911645 13.48585245 183.93770667 71.46336711 96.92046223-47.47719111-41.71002311-57.01632-44.62273422-88.00756622-44.62273423-128.96028444 0-7.98082845 0.37865245-14.41792 1.41266489-19.95207112-125.042688-34.35542755-204.70533689-27.02995911-251.11938844-13.45672533z m283.98933334-28.41349689c8.82551467-7.13614222 19.80643555-15.78689422 33.46705066-27.08821333 52.79288889-43.71979378 300.15488-176.91807289 270.12482844-412.78941867C930.94980267-125.72444444999996 737.29820445-125.72444444999996 690.84046222-125.72444444999996H420.70107022C197.820416-125.72444444999996 60.52977778-74.75199999999995 60.52977778 139.62353778c0 190.72432355 237.51702755 368.77835378 289.96039111 405.76978489 106.16832-60.75915378 265.158656-10.36925155 306.88324266 4.63121066zM421.74964622 353.16895289l51.43847823-51.43847822c5.82542222-5.82542222 14.942208-5.70891378 20.63655822 0l8.388608 8.388608a14.51986489 14.51986489 0 0 1 0 20.63655822l-51.43847822 51.43847822a14.49073778 14.49073778 0 0 1-20.63655823 0l-8.40317155-8.388608a14.51986489 14.51986489 0 0 1 0.01456355-20.63655822z m154.03872711 29.02516622l-51.42391466-51.43847822a14.49073778 14.49073778 0 0 1-0.01456356-20.63655822l8.388608-8.40317156a14.51986489 14.51986489 0 0 1 20.63655822 0.01456356l51.43847822 51.43847822c5.82542222 5.82542222 5.70891378 14.942208 0 20.63655822l-8.388608 8.40317156a14.51986489 14.51986489 0 0 1-20.63655822-0.01456356z"  horiz-adv-x="1024" />

    
    <glyph glyph-name="yezi-" unicode="&#58886;" d="M859.29 755.72c-5.31 15.34-79.28 7-116-9.42s-163.34-116.58-188.52-172-17.35-64.14-30-84.29-17.1-33.3-22.12-27.66-2.24 16.66 7.83 36.5 28 55 32.21 78.58-10.15 111.32-11.56 147.31-15.46 105.8-33.6 106.37-69.25-69.39-75.15-122.11-17.46-139.43 4.21-195.12 34.11-42.14 41.25-66.88-14-82.5-40.95-117.38-37-46.84-48.27-43.18-17 29-9.06 46.76 26.22 37.12 26.48 61.55-9.33 113.22-15.22 136.06S360 604.13 358 623.66s2.85 67.45-10.61 72.41c-23.69 7.57-57.39-50.77-76.1-132.25s6.86-148 15.18-161.37 27.85-46.23 41.65-61.22 25.81-20.89 29.44-46.57 5.44-38.52-9.79-74.66-66.06-149.34-83-166.45c-4.19 42.4 6.47 30.15 7.41 63.57s-3.05 43.81 3 74.05-21.14 139.41-46 168.41c-12.13 15.05-8 53.59-15.32 54.33s-9.44 2.44-13.92-22.33-43-102-34.27-169.44 12.82-73.72 21.86-87.69 21.56-23.3 31.14-50.25 10.82-40.5 20.73-48.44-16.17-92.81-16.17-92.81l28.17-6s24.82 125.4 50.13 137 37.28-17.63 83.27-17.95 103.84 15.91 129.29 26.22 41.21 16.06 66.32 36.4 56.41 67.58 74.87 89.77 31.63 25.58 25.85 33.46-33.3 3.41-61 1.88-114.7-6.52-178.61-29.73-85.12-71.8-96.12-84.38-14.63-27.62-24.49-21.32-4.73 14.71 1.28 23.38 78.23 177 162.4 192.17c40.67 5.8 37.86-24.72 92.36-26s138.9 18.76 202.48 98.5c47.14 59.19 61 113.91 66.63 121s-28.71 13.21-53.39 6.47-35-16.15-58.92-19.32S607 493.89 563.34 453s-47.73-91-66.93-103.09-41.9-25-44.33-17.05 42.39 100.88 78.53 141.68c11.65 13.69 29 5.41 67.11 24.61s144 102.73 174.92 136.36 32.09 58.69 57.77 79.74 30.84 34.75 28.88 40.47zM207.57 377c-11.4-41.54-7.11-122.14 1.1-161.26s31.48-151.17 31.48-151.17-17 118.18-24.28 165.4-8.3 147.03-8.3 147.03zM322.07 655.44C306.49 606.49 307.36 525 310.53 501s25.7-143.29 39-158.6c-17.27 74.25-28.49 121-33.21 164.41-4.65 43.1-0.32 77.72 5.75 148.63zM641.9 224.46c-33.45-39-103.26-81.1-125.27-91S381.22 80 361.2 83.29c72.25 24.34 117.88 39.36 157.31 58.18 39.09 18.66 66.27 40.53 123.39 82.99zM486 800.39c-10.09-27.71-43.91-204.72-21.09-280.17C450.33 607.18 486 800.39 486 800.39zM792.13 714.79c-39.45-21.42-213.55-167.5-225.74-185.64 33.42 22.3 225.74 185.64 225.74 185.64zM808.82 484.35c-18.6-24.78-170.91-157-273.46-145 159.64 32.19 273.46 145 273.46 145z"  horiz-adv-x="1024" />

    
    <glyph glyph-name="gongshang" unicode="&#58930;" d="M135.316931-7.589962a5.096588 5.096588 0 0 0-5.021269 5.021269v90.069018a105.572187 105.572187 0 0 0 105.446655 105.446655h133.666188a65.276501 65.276501 0 0 1 54.192049 28.75932s0.213404 0.313829 0.225957 0.351489a245.740919 245.740919 0 0 1 12.904662 21.880181 269.453863 269.453863 0 0 1 17.963591 43.471639A288.722984 288.722984 0 0 1 467.762618 373.787994a287.731284 287.731284 0 0 1-12.779131 86.44115c-2.284678 7.331053-4.933397 14.649553-7.883393 21.792309-3.088081 7.531904-6.502544 14.825298-10.155517 21.779756A246.569429 246.569429 0 0 1 423.926937 525.68139l-0.075319 0.112978a179.234207 179.234207 0 0 1-17.28572 22.106138 20.449119 20.449119 0 0 1-3.000208 2.786805A180.690375 180.690375 0 0 0 509.564684 875.914923H511.912128c98.893899 0 179.962291-80.428181 180.765694-179.271867a178.719527 178.719527 0 0 0-19.356993-82.850943 182.309735 182.309735 0 0 0-52.899072-63.079696 20.273375 20.273375 0 0 1-2.987655-2.774251 178.556336 178.556336 0 0 1-17.298273-22.118691l-0.075319-0.112979a246.569429 246.569429 0 0 1-13.01764-21.905287c-3.652973-6.954458-7.067437-14.285511-10.155518-21.804862-2.937443-7.105096-5.598715-14.436149-7.883392-21.742096a295.489145 295.489145 0 0 1 0.288723-172.781877A269.127481 269.127481 0 0 1 587.231167 243.963076a245.740919 245.740919 0 0 1 12.917215-21.905287l0.200851-0.31383a65.276501 65.276501 0 0 1 54.217155-28.796979h133.678742a105.572187 105.572187 0 0 0 105.446655-105.446655v-90.069018a5.084035 5.084035 0 0 0-5.021269-5.021269zM511.912128 855.829846a160.680617 160.680617 0 0 0 143.495323-233.012002 162.237211 162.237211 0 0 0-47.049293-56.087578 40.170154 40.170154 0 0 1-5.824673-5.360205A197.750138 197.750138 0 0 1 583.465215 536.979246l-0.150638-0.213404A263.616638 263.616638 0 0 1 569.267576 513.128216c-3.941696-7.531904-7.632329-15.402744-10.933814-23.449327-3.188506-7.695095-6.038076-15.591041-8.511051-23.486987a307.427212 307.427212 0 0 1-13.670406-92.504334 312.574013 312.574013 0 0 1 13.984235-92.278376 290.668726 290.668726 0 0 1 19.281674-46.685251v-0.062766A266.955782 266.955782 0 0 1 583.465215 210.973337l0.263617-0.389149v-0.100425a85.286259 85.286259 0 0 1 70.85011-37.65952h133.666188a85.72562 85.72562 0 0 0 85.361578-85.361578v-75.00521H150.380739v75.04287a85.738173 85.738173 0 0 0 85.361578 85.361578h133.666188a85.286259 85.286259 0 0 1 70.85011 37.65952l0.100425 0.075319 0.112979 0.163191 0.112978 0.175744a268.763439 268.763439 0 0 1 13.946576 23.662732v0.062766a290.505535 290.505535 0 0 1 19.294227 46.735464 312.887843 312.887843 0 0 1 13.984235 92.278376 307.916786 307.916786 0 0 1-13.695512 92.504334c-2.510635 7.858286-5.322545 15.741679-8.473392 23.386561-3.326591 8.096797-7.017224 16.005296-10.95892 23.499541a261.921959 261.921959 0 0 1-14.08466 23.712944l-0.150638 0.213404a198.691626 198.691626 0 0 1-19.030611 24.353156 40.735047 40.735047 0 0 1-5.824672 5.347652A162.212104 162.212104 0 0 0 368.805953 622.340824 160.680617 160.680617 0 0 0 509.840854 855.829846H511.912128m0 40.170154h-2.661273a200.788006 200.788006 0 0 1-117.811531-361.368198 157.8436 157.8436 0 0 0 15.729126-20.085077 222.517549 222.517549 0 0 0 11.950621-20.085077c3.514889-6.690841 6.602969-13.394236 9.364667-20.085077s5.184461-13.394236 7.280841-20.085077a266.014294 266.014294 0 0 0 11.862749-80.340309 270.822159 270.822159 0 0 0-12.151472-80.340309 247.460704 247.460704 0 0 0-16.595295-40.170154 228.668604 228.668604 0 0 0-11.850196-20.085077l-0.138084-0.200851a45.191424 45.191424 0 0 0-37.533988-19.89678H235.742317c-69.042453 0-125.531732-56.48928-125.531733-125.531732v-90.069018a25.181666 25.181666 0 0 1 25.106347-25.106346h753.353585a25.181666 25.181666 0 0 1 25.106346 25.106346v89.843061c0 69.042453-56.48928 125.531732-125.531732 125.531732H654.578942a45.191424 45.191424 0 0 0-37.533988 19.89678l-0.138085 0.200851a228.668604 228.668604 0 0 0-11.850196 20.085077A247.460704 247.460704 0 0 0 588.486484 293.447685a270.395351 270.395351 0 0 0-12.138918 80.340309 265.989188 265.989188 0 0 0 11.850196 80.340308q3.138293 10.042539 7.28084 20.085077c2.761698 6.703395 5.849779 13.406789 9.364667 20.085078a222.517549 222.517549 0 0 0 11.950621 20.085077 156.914665 156.914665 0 0 0 15.741679 20.085077A200.423964 200.423964 0 0 1 712.762899 696.793694C711.921837 806.759491 621.614309 896 511.912128 896zM893.704338-128H130.295662a20.085077 20.085077 0 0 0 0 40.170154h763.408676a20.085077 20.085077 0 0 0 0-40.170154z"  horiz-adv-x="1024" />

    
    <glyph glyph-name="yishu" unicode="&#58887;" d="M512-128C229.888-128 0 101.888 0 384S229.888 896 512 896s512-229.888 512-512c0-104.96-44.544-180.736-132.096-225.28-52.736-26.624-109.056-29.696-159.232-31.744-60.928-3.072-99.328-6.144-117.76-37.376-13.312-22.528-3.584-41.984 12.8-71.68 15.36-27.136 36.352-65.024 7.168-100.352-33.28-40.448-82.944-45.568-122.88-45.568z m0 970.24c-252.928 0-458.24-205.824-458.24-458.24s205.824-458.24 458.24-458.24c41.984 0 66.56 7.68 81.408 26.112 5.12 6.144 2.56 13.312-12.288 40.448-16.384 29.696-41.472 74.752-12.288 124.928 33.792 57.856 98.304 60.928 161.28 63.488 46.592 2.048 94.72 4.608 137.216 26.112 69.12 35.328 102.912 93.184 102.912 177.664 0 252.416-205.312 457.728-458.24 457.728zM214.016 440.32m-70.144 0a70.144 70.144 0 1 1 140.288 0 70.144 70.144 0 1 1-140.288 0ZM384 651.264m-70.144 0a70.144 70.144 0 1 1 140.288 0 70.144 70.144 0 1 1-140.288 0ZM645.12 666.624m-70.144 0a70.144 70.144 0 1 1 140.288 0 70.144 70.144 0 1 1-140.288 0ZM804.352 469.504m-70.144 0a70.144 70.144 0 1 1 140.288 0 70.144 70.144 0 1 1-140.288 0Z"  horiz-adv-x="1024" />

    
    <glyph glyph-name="hangkonghangtian-aerospace-diqiuyueqiu-" unicode="&#58992;" d="M910.5 39c0-39.3-31.8-71.1-71.1-71.1s-71.1 31.9-71.1 71.1c0 39.3 31.9 71.1 71.1 71.1 39.3 0 71.1-31.8 71.1-71.1z m0 0M811 366.1c0-165-133.7-298.7-298.7-298.7S213.6 201.1 213.6 366.1s133.7 298.7 298.7 298.7C677.2 664.9 811 531.1 811 366.1z m0 0M512.2 66.2c-165 0-298.7 133.7-298.7 298.7s133.7 298.7 298.7 298.7M498 67.4s77.3-15.1 170.7 42.7l14.2 14.2-28.5 28.5 14.2 85.3-42.6 42.7-56.9 28.5h-85.3L441.1 295l-28.5-56.9 14.2-71.1h56.9l14.2-56.9v-42.7z m0 0M370 565.3h28.5l42.7 85.3s-48.7 9.7-99.6-42.7l28.4-42.6z m0 0M640.3 479.9l14.2-71.1v-42.7L626 337.7l56.9-14.2 28.5 71.1-14.2 99.6 56.9-28.5h28.4c-13.9 103.7-128 156.5-128 156.5l-42.7 14.2-42.7-28.4-14.2-42.7H498l14.2-28.4v-71.1h-56.9v-71.1l56.9-14.2 56.9 14.2v71.1l71.2 14.1z m0 0M227.8 323.5l71.1-14.2 28.5-42.7v-56.9L313.1 167l-14.2-14.2s-79 79.4-71.1 170.7z m0 0M512.2-88.8h-4.5l0.3 27.9c18.2-0.2 36.7 0.8 54.8 2.9l3.3-27.7c-17.8-2-35.9-3.1-53.9-3.1z m-33.6 1.3c-19.4 1.4-38.9 4.1-57.9 8l5.6 27.3c17.8-3.6 36.1-6.2 54.3-7.5l-2-27.8z m116.4 6.2l-5 27.5c17.9 3.3 35.8 7.8 53.2 13.4l8.5-26.6c-18.6-6-37.6-10.7-56.7-14.3z m-202.7 8.5c-18.7 5.1-37.3 11.5-55.3 19l10.8 25.7c16.8-7 34.3-13 51.9-17.8l-7.4-26.9z m286.8 15.6l-10.2 26c16.9 6.7 33.6 14.5 49.6 23.4l13.5-24.4c-17-9.5-34.8-17.8-52.9-25z m-368.7 15.6c-17.4 8.6-34.4 18.5-50.6 29.3l15.5 23.2c15.2-10.1 31.1-19.4 47.5-27.5l-12.4-25zM236 4.7c-15.4 11.8-30.2 24.7-44 38.4l19.6 19.8c13-12.8 26.9-25 41.3-36L236 4.7z m-64.1 59.6c-12.9 14.5-25 30-35.9 46.1l23.1 15.7c10.3-15.1 21.6-29.6 33.7-43.2l-20.9-18.6z m-51.5 70.6c-9.9 16.7-18.8 34.2-26.4 52.1l25.6 11c7.2-16.7 15.5-33.2 24.8-48.9l-24-14.2z m791 12.9l-24.5 13.4c8.8 16 16.6 32.7 23.2 49.7l26-10.2c-7-18.1-15.4-35.9-24.7-52.9zM83.3 214.2c-6.5 18.3-11.8 37.2-15.9 56.2l27.3 5.8c3.8-17.8 8.8-35.6 14.9-52.7l-26.3-9.3z m862.6 14.1l-26.6 8.4c5.5 17.4 10 35.3 13.2 53.2l27.5-5c-3.5-19-8.2-38.1-14.1-56.6zM62.2 299.1c-2.8 19.2-4.5 38.7-4.8 58.2l27.9 0.5c0.3-18.3 1.9-36.7 4.5-54.6l-27.6-4.1z m902 14.8l-27.7 3.2c1.8 16.2 2.8 32.7 2.8 49v5.8l27.9 0.4v-6.1c-0.1-17.5-1-35.1-3-52.3zM85.7 385.3l-27.9 1.2c0.9 19.4 3 39 6.3 58.1l27.5-4.8c-3.2-17.9-5.1-36.2-5.9-54.5z m852.3 14c-1.4 18.2-4 36.5-7.7 54.3l27.3 5.7c3.9-19 6.7-38.4 8.2-57.8l-27.8-2.2zM97.1 466.7L70 473.2c4.6 18.9 10.4 37.7 17.4 55.8l26.1-10c-6.6-17-12.1-34.6-16.4-52.3z m826.7 13.5c-4.9 17.5-10.9 35-18 51.8l25.7 10.8c7.6-17.9 14-36.5 19.2-55.2l-26.9-7.4z m-799.7 64.1L98.7 556c8.1 17.6 17.5 34.9 27.8 51.4l23.6-14.8c-9.6-15.5-18.4-31.7-26-48.3z m770.3 12.6c-8.1 16.3-17.4 32.2-27.6 47.3l23.2 15.6c10.9-16.1 20.7-33.1 29.4-50.4l-25-12.5z m-728.9 58.5l-22.7 16.3c11.3 15.8 23.8 30.9 37.1 45.1l20.4-19.1c-12.5-13.3-24.2-27.6-34.8-42.3z m685.2 11.1c-11.1 14.4-23.3 28.3-36.2 41.2l19.8 19.7c13.7-13.8 26.7-28.5 38.5-43.9l-22.1-17z m-631 50.7l-19.1 20.3c14.1 13.3 29.3 25.8 45 37.2l16.4-22.6c-14.9-10.7-29.1-22.4-42.3-34.9z m574.9 9.3c-13.7 12.1-28.3 23.4-43.4 33.6l15.6 23.1c16.1-10.9 31.6-22.9 46.2-35.8l-18.4-20.9z m-510 41l-14.9 23.6c16.4 10.4 33.7 19.8 51.3 27.9l11.7-25.3c-16.5-7.7-32.7-16.5-48.1-26.2z m443.4 7.2c-15.7 9.2-32.2 17.5-49 24.6l11 25.7c17.9-7.6 35.4-16.4 52.2-26.3l-14.2-24z m-370.1 29.7l-10.1 26c18.1 7 36.9 12.9 55.7 17.6l6.6-27.1c-17.6-4.4-35.2-9.9-52.2-16.5z m295.5 4.9c-17.2 6-35 11-52.8 14.7l5.7 27.3c19-4 38-9.3 56.3-15.7l-9.2-26.3zM437 786.5L432.1 814c19.1 3.4 38.6 5.6 58 6.5l1.3-27.9c-18.2-0.8-36.5-2.9-54.4-6.1z m136.6 2.3c-18 2.6-36.4 4-54.7 4.3l0.4 27.9c19.5-0.3 39.1-1.8 58.2-4.6l-3.9-27.6z m0 0M887.6 109c2.8 4.1 5.5 8.1 8.1 12.2l-23.5 15c-3.3-5.1-6.7-10.3-10.3-15.3-7.2 2-14.7 3-22.5 3-46.9 0-85.1-38.2-85.1-85.1 0-7.8 1.1-15.3 3-22.5-5-3.5-10.2-7-15.3-10.3l15-23.5c4.1 2.6 8.2 5.3 12.2 8.1 15.4-22.3 41-36.9 70.1-36.9 46.9 0 85.1 38.2 85.1 85.1 0.1 29.2-14.6 54.9-36.8 70.2z m-48.2-127.2c-31.5 0-57.2 25.6-57.2 57.2 0 31.5 25.6 57.2 57.2 57.2 31.5 0 57.2-25.6 57.2-57.2 0-31.5-25.7-57.2-57.2-57.2z m0 0M512.2 678.8c-172.4 0-312.7-140.3-312.7-312.7 0-172.4 140.3-312.7 312.7-312.7 172.4 0 312.7 140.3 312.7 312.7 0 172.4-140.3 312.7-312.7 312.7z m261.2-199.1h-16l-77.8 38.9L697 396.3 674.5 340l-21.2 5.3 15.1 15.1v64.4l-17.9 71.5-95.4-19.1v-71.7l-42.9-10.7-42.9 10.7v46.3h56.9v88.4l-5.6 11.2H565l15.6 46.7 51.7 25.9-0.3 0.5c63-29.4 113.5-81.1 141.4-144.8z m-355.9 155l-27.7-55.5h-12.4l-18.1 27.1c18.2 11.6 37.7 21.1 58.2 28.4zM233.9 305.9l56.7-9.4 22.7-34.1v-51l-9.7-38.9c-34.1 36.8-58.7 82.6-69.7 133.4zM512 81.4v30.4L494.7 181h-56.4l-11 55.2 23.7 47.4 35 11.7h79.8l51.9-26 36-36-14.2-85.3 23.4-23.4c-43.7-27.4-95.4-43.2-150.7-43.2h-0.2z m174.2 59.4l-16.7 16.7 14.2 85.3-49.4 49.4-61.9 30.9h-90.9l-50.3-16.8-33.2-66.2 17.4-87h57.4l11.2-44.7v-25.6c-59.7 5.9-114.1 30.3-157.2 67.4l14.4 57.8v62.8L307.1 322l-77.9 13c-1.1 10.2-1.7 20.6-1.7 31.1 0 90.8 42.7 171.8 109.2 224l25.9-38.8h44.5l46.5 93.1-0.6 0.3c19.1 4.1 38.9 6.2 59.2 6.2 29.7 0 58.4-4.6 85.4-13.1l-39.9-20-12.9-38.6h-69.4l22.9-45.7v-53.9h-56.9v-96l70.8-17.7 70.9 17.7v70.6l46.9 9.4 10.6-42.3v-49.4l-41.8-41.8 92.6-23.2 34.4 85.9-11 76.9 36-18h33.1c8.5-27 13.2-55.8 13.2-85.6-0.1-91.5-43.6-173.1-110.9-225.3z m0 0"  horiz-adv-x="1024" />

    
    <glyph glyph-name="qianbi" unicode="&#59240;" d="M551.3 643L771 423.3 331.7-16H112V203.7L551.3 643zM303.7 51.6l48.1 48.1-124 124-48.1-48.1v-56.5h67.6v-67.5h56.4z m276.2 490c0 7.8-3.9 11.7-11.7 11.7-3.6 0-6.6-1.2-9-3.7L273.1 263.3c-2.4-2.4-3.7-5.4-3.7-9 0-7.8 3.9-11.7 11.7-11.7 3.6 0 6.6 1.2 9 3.7l286.2 286.2c2.3 2.5 3.6 5.5 3.6 9.1zM912 592.2c0-18.7-6.6-34.5-19.5-47.5l-87.6-87.6-219.7 219.6 87.6 87.2c12.7 13.3 28.5 20.1 47.5 20.1 18.7 0 34.6-6.7 48.1-20.1l124-123.6c13-13.8 19.6-29.8 19.6-48.1z"  horiz-adv-x="1024" />

    
    <glyph glyph-name="bingtutongji" unicode="&#58978;" d="M927.3 382.8c0-229.2-185.8-415-415-415s-415 185.8-415 415 185.8 415 415 415v-415h415z m-4.2 59.3H571.6V793.6c182.1-26.3 325.2-169.4 351.5-351.5z"  horiz-adv-x="1024" />

    
    <glyph glyph-name="jiaoxue" unicode="&#58888;" d="M939.802948 425.169591v449.122807c0 8.233918-6.736842 14.97076-14.97076 14.97076H251.896516c-8.233918 0-14.97076-6.736842-14.970761-14.97076v-132.491228c0-3.74269-2.994152-7.48538-7.48538-7.485381H93.954995c-8.233918 0-14.97076-6.736842-14.97076-14.97076v-294.175438c0-3.74269-2.994152-7.48538-7.48538-7.48538H16.85558c-8.233918 0-14.97076-6.736842-14.97076-14.970761v-514.994152c0-8.233918 6.736842-14.97076 14.97076-14.97076h985.076023c8.233918 0 14.97076 6.736842 14.970761 14.97076V402.71345c0 8.233918-6.736842 14.97076-14.970761 14.970761h-54.643274c-4.491228 0-7.48538 2.994152-7.485381 7.48538zM323.007627 810.666667h531.461988c3.74269 0 7.48538-2.994152 7.48538-7.48538v-376.51462c0-3.74269-2.994152-7.48538-7.48538-7.48538h-531.461988c-3.74269 0-7.48538 2.994152-7.48538 7.48538V803.181287c0 4.491228 2.994152 7.48538 7.48538 7.48538zM165.066106 656.467836h59.883041c3.74269 0 7.48538-2.994152 7.48538-7.48538v-221.567251c0-3.74269-2.994152-7.48538-7.48538-7.48538h-59.883041c-3.74269 0-7.48538 2.994152-7.48538 7.48538V648.982456c0 3.74269 3.74269 7.48538 7.48538 7.48538z m766.502924-705.122807H87.966691c-3.74269 0-7.48538 2.994152-7.48538 7.48538V332.350877c0 3.74269 2.994152 7.48538 7.48538 7.48538h843.602339c3.74269 0 7.48538-2.994152 7.48538-7.48538v-373.520468c-0.748538-3.74269-3.74269-7.48538-7.48538-7.48538z m0 0M280.34096 107.040936h455.111111c3.74269 0 7.48538-2.994152 7.48538-7.48538v-63.625731c0-3.74269 2.994152-7.48538 7.485381-7.485381h63.625731c3.74269 0 7.48538 2.994152 7.48538 7.485381V256c0 3.74269-2.994152 7.48538-7.48538 7.48538h-63.625731c-3.74269 0-7.48538-2.994152-7.485381-7.48538v-65.122807c0-3.74269-2.994152-7.48538-7.48538-7.48538H280.34096c-3.74269 0-7.48538 2.994152-7.48538 7.48538v65.122807c0 3.74269-2.994152 7.48538-7.48538 7.48538h-63.625731c-3.74269 0-7.48538-2.994152-7.48538-7.48538v-220.070175c0-3.74269 2.994152-7.48538 7.48538-7.485381h63.625731c3.74269 0 7.48538 2.994152 7.48538 7.485381v63.625731c0 4.491228 2.994152 7.48538 7.48538 7.48538z m182.643275 625.777777H399.358504c-3.74269 0-7.48538-2.994152-7.48538-7.48538v-63.625731c0-3.74269 2.994152-7.48538 7.48538-7.48538h63.625731c3.74269 0 7.48538 2.994152 7.48538 7.48538v63.625731c0 3.74269-2.994152 7.48538-7.48538 7.48538z m-62.877193-234.292397h63.625731c3.74269 0 7.48538 2.994152 7.48538 7.48538v63.625731c0 3.74269-2.994152 7.48538-7.48538 7.48538h-63.625731c-3.74269 0-7.48538-2.994152-7.48538-7.48538v-63.625731c0-4.491228 2.994152-7.48538 7.48538-7.48538zM556.551486 654.222222h220.070176c3.74269 0 7.48538 2.994152 7.48538 7.48538v63.625731c0 3.74269-2.994152 7.48538-7.48538 7.48538H556.551486c-3.74269 0-7.48538-2.994152-7.48538-7.48538v-63.625731c0-3.74269 2.994152-7.48538 7.48538-7.48538z m0-155.695906h220.070176c3.74269 0 7.48538 2.994152 7.48538 7.48538v63.625731c0 3.74269-2.994152 7.48538-7.48538 7.48538H556.551486c-3.74269 0-7.48538-2.994152-7.48538-7.48538v-63.625731c0-4.491228 2.994152-7.48538 7.48538-7.48538z m0 0"  horiz-adv-x="1024" />

    
    <glyph glyph-name="yiyuanguahao" unicode="&#58893;" d="M513.38666667 784.42666667L471.46666667 822.08c-10.24 12.58666667-23.57333333 13.22666667-39.78666667 2.13333333L288.32 681.3866666700001c-12.90666667-13.97333333-12.48-29.54666667 1.06666667-46.4l122.56-120.74666667 1.06666666 193.70666667 206.29333334-0.96v-192.74666667l119.25333333 120.85333333c11.84 13.97333333 11.84 29.33333333 0 46.4L605.01333333 822.08c-16.96 12.90666667-32.32 13.97333333-46.4 3.30666667zM113.17333333 382.72L75.73333333 340.69333333c-12.26666667-10.34666667-13.12-23.68-2.02666666-39.89333333l142.08-143.36c14.08-12.8 29.44-12.48 46.29333333 1.17333333l119.68 123.09333334-192.53333333 0.53333333 0.74666666 206.93333333 205.33333334 0.32-134.18666667 119.14666667q-20.8 17.38666667-46.18666667 0L75.52 474.34666667c-12.8-16.96-13.97333333-32.42666667-3.2-46.4zM517.44-10.026666670000054l41.81333333-37.54666666q15.36-18.66666667 39.57333334-2.02666667l142.08 143.14666667c12.69333333 14.08 12.37333333 29.65333333-1.28 46.61333333L617.49333333 260.37333333000004l-0.42666666-193.70666666-205.12 0.42666666-0.64 192.64L293.33333333 138.66666667000004c-11.73333333-14.18666667-11.62666667-29.65333333 0.10666667-46.50666667l133.12-140.05333333c16.96-13.01333333 32.21333333-13.97333333 46.18666667-3.2zM908.05333333 393.06666667l36.8 42.56c12.26666667 10.56 12.90666667 23.78666667 1.70666667 40l-144.21333333 141.86666666c-14.18666667 12.69333333-29.54666667 12.05333333-46.4-1.81333333l-118.4-124.69333333 193.06666666 1.70666666 1.70666667-207.14666666-191.68-2.77333334 121.70666667-117.86666666c14.18666667-11.62666667 29.65333333-11.30666667 46.4 0.74666666l138.02666666 135.89333334c12.58666667 17.28 13.54666667 32.74666667 2.66666667 46.61333333z"  horiz-adv-x="1024" />

    
    <glyph glyph-name="huodongguanli" unicode="&#58975;" d="M840.96 716.8H537.6c0-14.08-11.52-25.6-25.6-25.6s-25.6 11.52-25.6 25.6H183.04C154.88 716.8 132.266667 694.186667 132.266667 666.026667v-658.346667c0-28.16 22.613333-50.773333 50.773333-50.773333h658.346667c28.16 0 50.773333 22.613333 50.773333 50.773333V666.026667c-0.426667 28.16-23.04 50.773333-51.2 50.773333zM554.666667 132.266667H332.8c-18.773333 0-34.133333 15.36-34.133333 34.133333s15.36 34.133333 34.133333 34.133333h221.866667c18.773333 0 34.133333-15.36 34.133333-34.133333s-15.36-34.133333-34.133333-34.133333z m136.533333 170.666666H332.8c-18.773333 0-34.133333 15.36-34.133333 34.133334s15.36 34.133333 34.133333 34.133333h358.4c18.773333 0 34.133333-15.36 34.133333-34.133333s-15.36-34.133333-34.133333-34.133334z m0 170.666667H332.8c-18.773333 0-34.133333 15.36-34.133333 34.133333s15.36 34.133333 34.133333 34.133334h358.4c18.773333 0 34.133333-15.36 34.133333-34.133334s-15.36-34.133333-34.133333-34.133333zM512 810.666667c-52.053333 0-93.866667-41.813333-93.866667-93.866667s41.813333-93.866667 93.866667-93.866667 93.866667 41.813333 93.866667 93.866667-41.813333 93.866667-93.866667 93.866667z m0-119.466667c-14.08 0-25.6 11.52-25.6 25.6s11.52 25.6 25.6 25.6 25.6-11.52 25.6-25.6-11.52-25.6-25.6-25.6z"  horiz-adv-x="1024" />

    
    <glyph glyph-name="shuben" unicode="&#59125;" d="M1438.175947-91.166567H36.67147l60.675821 758.677015h1279.541492l61.287164-758.677015zM1438.481619-128H36.67147a36.833433 36.833433 0 0 0-26.899105 11.768358A36.22209 36.22209 0 0 0 0.143709-88.262687l61.134328 758.677015a36.374925 36.374925 0 0 0 36.374925 33.623881h1279.235821a36.680597 36.680597 0 0 0 36.527761-33.623881l61.134329-754.397612a36.986269 36.986269 0 0 0 0-7.183283A36.527761 36.527761 0 0 0 1438.481619-128zM76.561619-54.638806h1322.029851l-55.326567 685.621493H131.124007zM280.138932 822.944478s172.093134 22.772537 263.183284 22.772537 187.98806-51.2 187.98806-108.207761v-706.712836S749.039231 162.38806 520.549679 162.38806s-285.650149-56.243582-285.65015-56.243582zM731.15744 9.552239h-1.681194a24.453731 24.453731 0 0 0-22.772537 24.453731v11.921194c-2.751045 28.274627-26.899104 91.701493-186.15403 91.701493-210.30209 0-268.532537-49.213134-268.991045-49.671642a25.065075 25.065075 0 0 0-27.05194-3.820896 24.453731 24.453731 0 0 0-13.90806 23.231045l45.850746 717.411343a24.453731 24.453731 0 0 0 20.48 22.31403c7.183284 0.917015 174.691343 23.078209 266.392836 23.078209 100.413134 0 212.136119-53.186866 212.136119-129.604776v-692.65194a72.597015 72.597015 0 0 0 0-17.423284A24.300896 24.300896 0 0 0 731.15744 9.552239zM520.549679 186.077612c95.369552 0 152.835821-18.64597 186.459701-45.850746V737.509254c0 35.610746-76.41791 83.906866-163.687164 83.906865-70.457313 0-192.420299-14.213731-240.105075-20.174328l-41.112835-652.608955c42.641194 17.576119 121.198806 37.444776 258.445373 37.444776zM147.630276 9.399403l87.269253 107.596418 45.239403 705.948657-86.65791-113.862687-45.850746-699.682388zM147.630276-14.901493a22.31403 22.31403 0 0 0-8.864478 1.681194 24.14806 24.14806 0 0 0-15.283582 24.300896l45.850746 699.529552a24.300896 24.300896 0 0 0 4.890747 13.143881l86.65791 114.015522a24.606567 24.606567 0 0 0 27.968955 7.947463 23.995224 23.995224 0 0 0 15.283582-24.300896L259.964604 115.467463a25.829254 25.829254 0 0 0-5.502089-13.90806l-87.269254-106.985075a23.995224 23.995224 0 0 0-19.562985-9.475821z m69.693134 714.965971l-40.348657-615.928359 34.235224 42.182687L250.641619 743.164179zM146.407589 6.342687h584.902687C729.629082-18.416716 750.109082 162.38806 497.777141 162.38806 214.113858 162.38806 146.407589 6.342687 146.407589 6.342687zM731.310276-17.958209c-3.66806 0-7.336119-1.528358-10.392836 0H146.407589a27.968955 27.968955 0 0 0-20.48 14.060896 24.300896 24.300896 0 0 0-1.83403 23.078209c3.056716 7.030448 78.099104 169.953433 373.683582 169.953432 232.004776 0 255.235821-146.111045 257.528359-175.302686a26.899104 26.899104 0 0 0 0-6.113433v-1.528358a25.065075 25.065075 0 0 0-23.995224-24.14806z m-536.14806 48.754627h511.847164c-11.768358 39.890149-58.536119 109.583284-209.232239 109.583283-181.263284 0-265.475821-67.859104-302.614925-109.583283zM1189.664903 822.944478s-168.119403 22.772537-258.903881 22.772537-199.756418-48.143284-199.756418-105.151045v-718.328358S725.808186 162.38806 953.533559 162.38806s285.650149-56.243582 285.65015-56.243582zM707.00938 737.509254c0 80.238806 130.216119 132.661493 223.751642 132.661492A2599.890149 2599.890149 0 0 0 1192.263112 847.092537a24.606567 24.606567 0 0 0 21.091343-22.466865l49.518806-717.411344A24.300896 24.300896 0 0 0 1222.830276 88.109851s-58.383284 49.213134-268.685373 49.213134c-189.210746 0-197.769552-101.482985-198.686568-114.168358v-1.528358a24.606567 24.606567 0 0 0-23.995223-24.453732 22.31403 22.31403 0 0 0-23.995224 21.397015v718.328358m223.293134 84.518209c-88.644776 0-175.302687-45.850746-175.302687-80.850149v-614.552836c34.999403 32.55403 95.063881 60.064478 198.686568 60.064478 137.552239 0 215.651343-19.868657 258.292537-37.444776l-45.850746 652.761791c-46.614925 5.807761-165.521194 20.021493-235.825672 20.021492zM1326.758634 9.399403l-87.574925 107.596418-49.518806 705.948657 90.32597-113.862687 46.767761-699.682388zM1326.758634-14.901493a24.300896 24.300896 0 0 0-18.951642 9.17015l-87.422089 106.985074a24.300896 24.300896 0 0 0-5.50209 13.755224L1165.211171 821.263284a24.759403 24.759403 0 0 0 15.283582 24.453731 24.300896 24.300896 0 0 0 27.81612-7.641791L1299.248186 724.212537a24.912239 24.912239 0 0 0 5.196418-13.602388l45.850746-696.167164a26.746269 26.746269 0 0 0 0-5.043582 24.453731 24.453731 0 0 0-24.453731-24.300896z m-63.732537 141.220299l34.235224-42.029851-41.112836 615.469851-36.680597 45.850746zM1328.439828 6.342687H731.310276S725.808186 162.38806 976.458932 162.38806c283.05194 0 351.980896-156.045373 351.980896-156.045373zM1328.7455-17.958209H731.310276a24.300896 24.300896 0 0 0-24.300896 23.383881 158.643582 158.643582 0 0 0 45.850746 108.054925c45.850746 48.143284 122.268657 72.597015 223.293135 72.597015 275.104478 0 359.469851-140.608955 372.460895-166.132537a23.078209 23.078209 0 0 0 4.126567-13.602388 24.300896 24.300896 0 0 0-23.995223-24.300896z m-569.160597 48.754627h522.545671c-37.444776 41.724179-124.561194 106.985075-305.671642 106.985075-86.046567 0-150.848955-19.562985-187.376716-56.854926a116.919403 116.919403 0 0 1-29.497313-50.130149zM737.882216 720.391642a36.527761 36.527761 0 0 0-36.527761 36.527761c0 24.912239-73.361194 66.025075-157.115224 66.025075-87.727761 0-256.764179-22.31403-258.445373-22.466866a36.527761 36.527761 0 0 0-9.628657 72.444179C283.348485 873.838806 451.773559 896 544.239231 896c111.264478 0 230.170746-55.93791 230.170746-139.080597a36.527761 36.527761 0 0 0-36.527761-36.527761zM152.979529 644.890746a37.29194 37.29194 0 0 0-23.231044 8.253135 36.527761 36.527761 0 0 0-4.890747 51.505671l127.923583 155.281194a36.527761 36.527761 0 0 0 56.396417-45.850746l-127.923582-155.892537a36.22209 36.22209 0 0 0-28.274627-13.296717zM738.035052 720.391642a36.527761 36.527761 0 0 0-36.527761 36.527761C701.507291 840.06209 820.566395 896 932.442216 896a2621.592836 2621.592836 0 0 0 262.877612-23.078209 36.527761 36.527761 0 1 0-9.781493-72.444179c-1.681194 0-166.285373 22.466866-253.860298 22.466866-83.601194 0-157.115224-41.112836-157.115224-66.025075a36.527761 36.527761 0 0 0-36.527761-36.527761zM1328.134156 638.777313a36.986269 36.986269 0 0 0-27.816119 12.685374l-137.552239 161.241791a36.527761 36.527761 0 1 0 55.479403 47.684776l137.552239-161.241791a36.680597 36.680597 0 0 0-3.973731-51.658508 37.29194 37.29194 0 0 0-23.689553-8.711642zM655.962216 226.73194a24.300896 24.300896 0 0 0-20.938507 12.07403c-17.117612 28.274627-170.41194 47.226269-297.418508 16.81194a24.300896 24.300896 0 0 0-11.309851 47.379105c113.709851 27.357612 311.479403 25.523582 350.452538-38.973134a24.453731 24.453731 0 0 0-8.253135-33.471045 23.689552 23.689552 0 0 0-12.532537-3.820896zM655.962216 347.625075a24.300896 24.300896 0 0 0-20.938507 11.768358C618.058932 387.362388 477.755649 406.925373 349.832067 376.358209a24.300896 24.300896 0 0 0-11.309851 47.379104c114.779701 27.510448 298.946866 25.98209 338.225672-38.973134a24.300896 24.300896 0 0 0-8.253135-33.471045 23.689552 23.689552 0 0 0-12.532537-3.668059zM655.962216 463.627463a24.300896 24.300896 0 0 0-20.938507 11.768358c-17.117612 28.427463-146.263881 47.226269-272.964777 16.81194a24.300896 24.300896 0 1 0-11.462686 47.379105c110.80597 26.593433 285.802985 27.816119 326.151642-38.973135a24.300896 24.300896 0 0 0-8.253135-33.471044 23.689552 23.689552 0 0 0-12.532537-3.515224zM816.286992 348.54209a24.912239 24.912239 0 0 0-13.90806 4.432238 24.300896 24.300896 0 0 0-5.960597 33.929553c49.671642 70.915821 152.835821 61.134328 220.847762 55.479403A24.912239 24.912239 0 0 0 1039.427291 415.942687a23.995224 23.995224 0 0 0-25.829254-22.161194c-58.230448 5.196418-144.124179 12.991045-177.74806-34.846568a24.300896 24.300896 0 0 0-19.562985-10.392835zM816.286992 469.435224a25.065075 25.065075 0 0 0-12.532537 3.515224 24.453731 24.453731 0 0 0-8.864478 33.471045c39.278806 64.955224 223.44597 66.483582 338.378508 38.973134a24.300896 24.300896 0 1 0-11.462687-47.379105c-127.923582 30.567164-268.226866 11.157015-285.191642-16.81194a24.606567 24.606567 0 0 0-20.327164-11.768358zM816.286992 585.437612a25.065075 25.065075 0 0 0-12.532537 3.515224A24.453731 24.453731 0 0 0 794.889977 622.423881c40.348657 66.789254 215.345672 65.566567 326.151642 39.12597a24.453731 24.453731 0 0 0-11.309851-47.531941c-126.853731 30.567164-256 11.615522-273.117612-16.81194a24.606567 24.606567 0 0 0-20.327164-11.768358zM548.212962 630.982687l-69.998806 60.828656-76.112238-60.828656 0.152835 216.262686h146.263881l-0.305672-216.262686zM548.212962 606.528955a24.759403 24.759403 0 0 0-15.283582 5.960597l-54.715224 47.684776-60.370149-48.296119a24.453731 24.453731 0 0 0-25.829254-2.903881 20.021493 20.021493 0 0 0-13.449552 18.951642V847.245373a24.453731 24.453731 0 0 0 24.300896 24.453731h146.26388a24.300896 24.300896 0 0 0 16.506269-7.183283 24.606567 24.606567 0 0 0 7.183283-17.270448v-216.415522a24.14806 24.14806 0 0 0-14.366567-22.008358 23.231045 23.231045 0 0 0-10.24-2.292538zM426.708485 822.944478v-146.263881l36.222089 34.235224a24.453731 24.453731 0 0 0 30.567164 0l30.567165-33.623881V822.944478z"  horiz-adv-x="1475" />

    
    <glyph glyph-name="wode" unicode="&#58892;" d="M512 384.1c-96.6 0-175 78.3-175 175s78.4 175 175 175 175-78.4 175-175-78.4-175-175-175z m331.2-161.7c5.6-12.1 9.5-29.6 12.9-52.8 1.7-11.8 3.2-24.3 4.4-36.9 0.4-4.4 0.8-8.4 1.1-12.1 0.2-2.2 0.3-3.8 0.4-4.8l0.1-2.3c0-43.9-35.6-79.5-79.5-79.5H241.4c-43.9 0-79.5 35.7-79.5 79.5l0.1 2.3c0.1 0.9 0.2 2.5 0.4 4.8 0.3 3.7 0.7 7.7 1.1 12.1 1.2 12.5 2.7 25.1 4.4 36.9 3.4 23.2 7.3 40.7 12.9 52.8 24.5 53.1 204.5 129.9 331.2 129.9s306.7-76.8 331.2-129.9z"  horiz-adv-x="1024" />

    
    <glyph glyph-name="gongsixinxi" unicode="&#58904;" d="M32-32v64h64v640a128 128 0 0 0 128 128h320a128 128 0 0 0 128-128v-192h128a128 128 0 0 0 128-128v-320h64v-64H32z m576 704a64 64 0 0 1-64 64h-320a64 64 0 0 1-64-64v-640h448v640z m256-320a64 64 0 0 1-64 64h-128v-384h192v320z m-640 0h256v-64h-256v64z m0 128h256v-64h-256v64z m0 128h256v-64h-256v64z"  horiz-adv-x="1024" />

    
    <glyph glyph-name="qiwangzhiwei" unicode="&#58926;" d="M682.666667 597.333333v-85.333333h-42.666667V597.333333H384v-85.333333H341.333333V597.333333H256v-554.666666h512V597.333333h-85.333333zM341.333333 640V704A64 64 0 0 0 405.333333 768h213.333334A64 64 0 0 0 682.666667 704V640h213.333333a42.666667 42.666667 0 0 0 42.666667-42.666667v-554.666666a42.666667 42.666667 0 0 0-42.666667-42.666667H128a42.666667 42.666667 0 0 0-42.666667 42.666667V597.333333a42.666667 42.666667 0 0 0 42.666667 42.666667h213.333333z m42.666667 0h256V704a21.333333 21.333333 0 0 1-21.333333 21.333333h-213.333334a21.333333 21.333333 0 0 1-21.333333-21.333333V640z m426.666667-42.666667v-554.666666h85.333333V597.333333h-85.333333zM213.333333 597.333333H128v-554.666666h85.333333V597.333333z"  horiz-adv-x="1024" />

    


  </font>
</defs>
</svg>
